# xmcd CD database file generated by Grip 3.2.0
# 
# Track frame offsets:
#       182
#       26712
#       46590
#       66027
#       99277
#       125157
# 
# Disc length: 2580 seconds
# 
# Revision: 4
# Processed by: cddbd v1.5.2PL0 Copyright (c) Steve Scherf et al.
# Submitted via: Grip 3.2.0
# 
DISCID=470a1206
DTITLE=Blood Sweat and Tears - Nuclear Blues
DYEAR=1980
DGENRE=Fusion
TTITLE0=Agitato
TTITLE1=Nuclear Blues
TTITLE2=Manic Depression
TTITLE3=I'll Drown in My Own Tears
TTITLE4=Fantasy Stage
TTITLE5=Spanish Wine (Suite) - Spanish Wine (Reprise)
EXTD=
EXTT0=
EXTT1=
EXTT2=
EXTT3=
EXTT4=
EXTT5=
PLAYORDER=
